<mxfile host="app.diagrams.net" agent="Mozilla/5.0 (Windows NT 10.0; Win64; x64) AppleWebKit/537.36 (KHTML, like Gecko) Chrome/126.0.0.0 YaBrowser/24.7.0.0 Safari/537.36" version="24.8.0">
  <diagram name="Страница — 1" id="cpVi-ENpOvdZ2vOA71Rc">
    <mxGraphModel dx="1434" dy="829" grid="1" gridSize="10" guides="1" tooltips="1" connect="1" arrows="1" fold="1" page="1" pageScale="1" pageWidth="827" pageHeight="1169" math="0" shadow="0">
      <root>
        <mxCell id="0" />
        <mxCell id="1" parent="0" />
        <mxCell id="MAeRF0AcZbz3pX1H7g1Q-4" style="edgeStyle=orthogonalEdgeStyle;rounded=0;orthogonalLoop=1;jettySize=auto;html=1;entryX=0.5;entryY=0;entryDx=0;entryDy=0;" edge="1" parent="1" source="MAeRF0AcZbz3pX1H7g1Q-3" target="MAeRF0AcZbz3pX1H7g1Q-6">
          <mxGeometry relative="1" as="geometry">
            <mxPoint x="414" y="240" as="targetPoint" />
          </mxGeometry>
        </mxCell>
        <mxCell id="MAeRF0AcZbz3pX1H7g1Q-5" value="Нужны права" style="edgeLabel;html=1;align=center;verticalAlign=middle;resizable=0;points=[];" vertex="1" connectable="0" parent="MAeRF0AcZbz3pX1H7g1Q-4">
          <mxGeometry x="-0.0559" relative="1" as="geometry">
            <mxPoint as="offset" />
          </mxGeometry>
        </mxCell>
        <mxCell id="MAeRF0AcZbz3pX1H7g1Q-3" value="Вы купили машину класса X" style="rounded=1;whiteSpace=wrap;html=1;" vertex="1" parent="1">
          <mxGeometry x="354" y="100" width="120" height="60" as="geometry" />
        </mxCell>
        <mxCell id="MAeRF0AcZbz3pX1H7g1Q-8" style="edgeStyle=orthogonalEdgeStyle;rounded=0;orthogonalLoop=1;jettySize=auto;html=1;exitX=0;exitY=0.5;exitDx=0;exitDy=0;entryX=0.5;entryY=0;entryDx=0;entryDy=0;" edge="1" parent="1" source="MAeRF0AcZbz3pX1H7g1Q-6" target="MAeRF0AcZbz3pX1H7g1Q-12">
          <mxGeometry relative="1" as="geometry">
            <mxPoint x="220" y="350" as="targetPoint" />
          </mxGeometry>
        </mxCell>
        <mxCell id="MAeRF0AcZbz3pX1H7g1Q-10" value="Вы сдаете на категорию X" style="edgeLabel;html=1;align=center;verticalAlign=middle;resizable=0;points=[];" vertex="1" connectable="0" parent="MAeRF0AcZbz3pX1H7g1Q-8">
          <mxGeometry x="-0.1288" relative="1" as="geometry">
            <mxPoint as="offset" />
          </mxGeometry>
        </mxCell>
        <mxCell id="MAeRF0AcZbz3pX1H7g1Q-9" style="edgeStyle=orthogonalEdgeStyle;rounded=0;orthogonalLoop=1;jettySize=auto;html=1;exitX=1;exitY=0.5;exitDx=0;exitDy=0;entryX=0.5;entryY=0;entryDx=0;entryDy=0;" edge="1" parent="1" source="MAeRF0AcZbz3pX1H7g1Q-6" target="MAeRF0AcZbz3pX1H7g1Q-13">
          <mxGeometry relative="1" as="geometry">
            <mxPoint x="620" y="340" as="targetPoint" />
          </mxGeometry>
        </mxCell>
        <mxCell id="MAeRF0AcZbz3pX1H7g1Q-11" value="Вы сдаете не на категорию X" style="edgeLabel;html=1;align=center;verticalAlign=middle;resizable=0;points=[];" vertex="1" connectable="0" parent="MAeRF0AcZbz3pX1H7g1Q-9">
          <mxGeometry x="-0.0393" y="-2" relative="1" as="geometry">
            <mxPoint as="offset" />
          </mxGeometry>
        </mxCell>
        <mxCell id="MAeRF0AcZbz3pX1H7g1Q-6" value="Вы готовитесь" style="rounded=1;whiteSpace=wrap;html=1;" vertex="1" parent="1">
          <mxGeometry x="354" y="240" width="120" height="60" as="geometry" />
        </mxCell>
        <mxCell id="MAeRF0AcZbz3pX1H7g1Q-18" style="edgeStyle=orthogonalEdgeStyle;rounded=0;orthogonalLoop=1;jettySize=auto;html=1;exitX=0;exitY=0.5;exitDx=0;exitDy=0;entryX=0.5;entryY=0;entryDx=0;entryDy=0;" edge="1" parent="1" source="MAeRF0AcZbz3pX1H7g1Q-12" target="MAeRF0AcZbz3pX1H7g1Q-14">
          <mxGeometry relative="1" as="geometry" />
        </mxCell>
        <mxCell id="MAeRF0AcZbz3pX1H7g1Q-19" style="edgeStyle=orthogonalEdgeStyle;rounded=0;orthogonalLoop=1;jettySize=auto;html=1;exitX=1;exitY=0.5;exitDx=0;exitDy=0;" edge="1" parent="1" source="MAeRF0AcZbz3pX1H7g1Q-12" target="MAeRF0AcZbz3pX1H7g1Q-15">
          <mxGeometry relative="1" as="geometry" />
        </mxCell>
        <mxCell id="MAeRF0AcZbz3pX1H7g1Q-12" value="Вы сдаете" style="rounded=1;whiteSpace=wrap;html=1;" vertex="1" parent="1">
          <mxGeometry x="190" y="340" width="120" height="60" as="geometry" />
        </mxCell>
        <mxCell id="MAeRF0AcZbz3pX1H7g1Q-20" style="edgeStyle=orthogonalEdgeStyle;rounded=0;orthogonalLoop=1;jettySize=auto;html=1;exitX=0;exitY=0.5;exitDx=0;exitDy=0;entryX=0.5;entryY=0;entryDx=0;entryDy=0;" edge="1" parent="1" source="MAeRF0AcZbz3pX1H7g1Q-13" target="MAeRF0AcZbz3pX1H7g1Q-16">
          <mxGeometry relative="1" as="geometry" />
        </mxCell>
        <mxCell id="MAeRF0AcZbz3pX1H7g1Q-21" style="edgeStyle=orthogonalEdgeStyle;rounded=0;orthogonalLoop=1;jettySize=auto;html=1;exitX=1;exitY=0.5;exitDx=0;exitDy=0;" edge="1" parent="1" source="MAeRF0AcZbz3pX1H7g1Q-13" target="MAeRF0AcZbz3pX1H7g1Q-17">
          <mxGeometry relative="1" as="geometry" />
        </mxCell>
        <mxCell id="MAeRF0AcZbz3pX1H7g1Q-13" value="Вы сдаете" style="rounded=1;whiteSpace=wrap;html=1;" vertex="1" parent="1">
          <mxGeometry x="520" y="340" width="120" height="60" as="geometry" />
        </mxCell>
        <mxCell id="MAeRF0AcZbz3pX1H7g1Q-14" value="Ура катайтесь на машине" style="rounded=1;whiteSpace=wrap;html=1;" vertex="1" parent="1">
          <mxGeometry x="110" y="450" width="120" height="60" as="geometry" />
        </mxCell>
        <mxCell id="MAeRF0AcZbz3pX1H7g1Q-24" style="edgeStyle=orthogonalEdgeStyle;rounded=0;orthogonalLoop=1;jettySize=auto;html=1;exitX=0.5;exitY=1;exitDx=0;exitDy=0;entryX=0.5;entryY=0;entryDx=0;entryDy=0;" edge="1" parent="1" source="MAeRF0AcZbz3pX1H7g1Q-15" target="MAeRF0AcZbz3pX1H7g1Q-6">
          <mxGeometry relative="1" as="geometry">
            <Array as="points">
              <mxPoint x="330" y="530" />
              <mxPoint x="80" y="530" />
              <mxPoint x="80" y="220" />
              <mxPoint x="414" y="220" />
            </Array>
          </mxGeometry>
        </mxCell>
        <mxCell id="MAeRF0AcZbz3pX1H7g1Q-15" value="Пересдача" style="rounded=1;whiteSpace=wrap;html=1;" vertex="1" parent="1">
          <mxGeometry x="270" y="450" width="120" height="60" as="geometry" />
        </mxCell>
        <mxCell id="MAeRF0AcZbz3pX1H7g1Q-22" style="edgeStyle=orthogonalEdgeStyle;rounded=0;orthogonalLoop=1;jettySize=auto;html=1;exitX=0;exitY=0.5;exitDx=0;exitDy=0;entryX=1;entryY=0.5;entryDx=0;entryDy=0;" edge="1" parent="1" source="MAeRF0AcZbz3pX1H7g1Q-16" target="MAeRF0AcZbz3pX1H7g1Q-15">
          <mxGeometry relative="1" as="geometry" />
        </mxCell>
        <mxCell id="MAeRF0AcZbz3pX1H7g1Q-16" value="Ура вы не можете кататься на вашей машине" style="rounded=1;whiteSpace=wrap;html=1;" vertex="1" parent="1">
          <mxGeometry x="430" y="450" width="120" height="60" as="geometry" />
        </mxCell>
        <mxCell id="MAeRF0AcZbz3pX1H7g1Q-17" value="Продайте машину, вы безнадежны" style="rounded=1;whiteSpace=wrap;html=1;" vertex="1" parent="1">
          <mxGeometry x="600" y="450" width="120" height="60" as="geometry" />
        </mxCell>
      </root>
    </mxGraphModel>
  </diagram>
</mxfile>
